{"title":"Yeh jo hai Zindagi season 2","uid":7727332,"size":5691808128,"categoryP":"video","categoryS":"tv_shows","magnet":"?xt=urn:btih:2fb9aa0b9146924cf6febd39681a2138c32bff3d&amp;dn=Yeh+jo+hai+Zindagi+season+2+&amp;tr=udp%3A%2F%2Ftracker.openbittorrent.com%3A80&amp;tr=udp%3A%2F%2Fopen.demonii.com%3A1337&amp;tr=udp%3A%2F%2Ftracker.coppersurfer.tk%3A6969&amp;tr=udp%3A%2F%2Fexodus.desync.com%3A6969","seeders":0,"leechers":3,"uploader":"djsunny1986","files":24,"time":1350247259,"description":"Yeh Jo hai Zindagi Season 2 episode 25 to 48\n\n\n\nFormat                                   : CDXA/MPEG-PS\nFile size                                : 226 MiB\nDuration                                 : 22mn 21s\nOverall bit rate                         : 1 413 Kbps\n\nVideo\nID                                       : 224 (0xE0)\nFormat                                   : MPEG Video\nFormat version                           : Version 1\nFormat settings, BVOP                    : Yes\nFormat settings, Matrix                  : Custom\nDuration                                 : 22mn 21s\nBit rate                                 : 1 160 Kbps\nMaximum bit rate                         : 1 120 Kbps\nWidth                                    : 352 pixels\nHeight                                   : 288 pixels\nDisplay aspect ratio                     : 4:3\nFrame rate                               : 25.000 fps\nStandard                                 : PAL\nColor space                              : YUV\nBit depth                                : 8 bits\nScan type                                : Progressive\nCompression mode                         : Lossy\nBits/(Pixel*Frame)                       : 0.458\nStream size                              : 186 MiB (82%)\n\nAudio\nID                                       : 192 (0xC0)\nFormat                                   : MPEG Audio\nFormat version                           : Version 1\nFormat profile                           : Layer 2\nDuration                                 : 22mn 21s\nBit rate mode                            : Constant\nBit rate                                 : 224 Kbps\nChannel(s)                               : 2 channels\nSampling rate                            : 44.1 KHz\nCompression mode                         : Lossy\nStream size                              : 35.8 MiB (16%)\n\n\nScreens: &lt;a href=&quot;\nhttp://i.minus.com/ibteb6CYBQPnCV.jpg&quot; rel=&quot;nofollow&quot; target=&quot;_NEW&quot;&gt;\nhttp://i.minus.com/ibteb6CYBQPnCV.jpg&lt;/a&gt; &lt;a href=&quot;\nhttp://i.minus.com/iblUo4hGq9lP7j.jpg&quot; rel=&quot;nofollow&quot; target=&quot;_NEW&quot;&gt;\nhttp://i.minus.com/iblUo4hGq9lP7j.jpg&lt;/a&gt; &lt;a href=&quot;\nhttp://i.minus.com/iK5Y3on6sI8aK.jpg&quot; rel=&quot;nofollow&quot; target=&quot;_NEW&quot;&gt;\nhttp://i.minus.com/iK5Y3on6sI8aK.jpg&lt;/a&gt; &lt;a href=&quot;\nhttp://i.minus.com/ibs3tzSytYQcRo.jpg&quot; rel=&quot;nofollow&quot; target=&quot;_NEW&quot;&gt;\nhttp://i.minus.com/ibs3tzSytYQcRo.jpg&lt;/a&gt; &lt;a href=&quot;\nhttp://i.minus.com/ibyhiFohz2AeOz.jpg&quot; rel=&quot;nofollow&quot; target=&quot;_NEW&quot;&gt;\nhttp://i.minus.com/ibyhiFohz2AeOz.jpg&lt;/a&gt; &lt;a href=&quot;\nhttp://i.minus.com/iD70zBRMMe9jX.jpg&quot; rel=&quot;nofollow&quot; target=&quot;_NEW&quot;&gt;\nhttp://i.minus.com/iD70zBRMMe9jX.jpg&lt;/a&gt; &lt;a href=&quot;\nhttp://i.minus.com/i6PlD0qjalLs5.jpg&quot; rel=&quot;nofollow&quot; target=&quot;_NEW&quot;&gt;\nhttp://i.minus.com/i6PlD0qjalLs5.jpg&lt;/a&gt; &lt;a href=&quot;\nhttp://i.minus.com/ibsf840NLrUCfJ.jpg&quot; rel=&quot;nofollow&quot; target=&quot;_NEW&quot;&gt;\nhttp://i.minus.com/ibsf840NLrUCfJ.jpg&lt;/a&gt;\nseed amd enjoy..\nplease maintain ratio to support this torrent\t","torrent":{"xt":"urn:btih:2fb9aa0b9146924cf6febd39681a2138c32bff3d","amp;dn":"Yeh+jo+hai+Zindagi+season+2+","amp;tr":["udp%3A%2F%2Ftracker.openbittorrent.com%3A80","udp%3A%2F%2Fopen.demonii.com%3A1337","udp%3A%2F%2Ftracker.coppersurfer.tk%3A6969","udp%3A%2F%2Fexodus.desync.com%3A6969"],"infoHash":"2fb9aa0b9146924cf6febd39681a2138c32bff3d","infoHashBuffer":{"type":"Buffer","data":[47,185,170,11,145,70,146,76,246,254,189,57,104,26,33,56,195,43,255,61]},"announce":[],"urlList":[]}}